<svg xmlns="http://www.w3.org/2000/svg" viewBox="0 0 1041.64 300.36"><defs><style>.cls-1{fill:#fff;}.cls-2{fill:#6d38e0;}.cls-3{fill:#002547;}.cls-4{fill:#d2ccff;}</style></defs><g id="Layer_2" data-name="Layer 2"><g id="OBJECTS"><path class="cls-1" d="M259.24,260.36V145.56h-40v-25.2h108v25.2h-40v114.8Z"/><path class="cls-1" d="M362.24,263a55.43,55.43,0,0,1-28.6-7.4,53.42,53.42,0,0,1-26.8-47,54.21,54.21,0,0,1,7.1-27.4,53.46,53.46,0,0,1,19.7-19.8,55.43,55.43,0,0,1,28.6-7.4q16.2,0,28.7,7.4a54.61,54.61,0,0,1,0,94.2Q378.45,263,362.24,263Zm0-24.6a27.16,27.16,0,0,0,15-4.1,27.81,27.81,0,0,0,9.9-10.9,31.9,31.9,0,0,0,3.5-14.8,32.37,32.37,0,0,0-3.5-15,27.81,27.81,0,0,0-9.9-10.9,29.49,29.49,0,0,0-30,0,27.81,27.81,0,0,0-9.9,10.9,32.37,32.37,0,0,0-3.5,15,31.9,31.9,0,0,0,3.5,14.8,27.81,27.81,0,0,0,9.9,10.9A27.16,27.16,0,0,0,362.24,238.36Z"/><path class="cls-1" d="M429.64,300.36v-144h26.6v16.8a34.76,34.76,0,0,1,11.9-13.8q7.69-5.21,21.3-5.2a47.41,47.41,0,0,1,20.1,4.3,52,52,0,0,1,16.3,11.8,56.2,56.2,0,0,1,15,38.5,54.83,54.83,0,0,1-6.9,27.3,53.85,53.85,0,0,1-18.5,19.6,47.77,47.77,0,0,1-26,7.3q-13.4,0-21-4.9a33.32,33.32,0,0,1-11.8-13.1v55.4Zm55.4-61.8a27.2,27.2,0,0,0,15.1-4.2,28.94,28.94,0,0,0,10.1-11.1,32.43,32.43,0,0,0,0-29.7,28.39,28.39,0,0,0-10.1-10.9,27.73,27.73,0,0,0-15.1-4.1,28.06,28.06,0,0,0-15.4,4.2,28.88,28.88,0,0,0-10.2,11,31.59,31.59,0,0,0-3.6,15,31.12,31.12,0,0,0,3.6,14.8,28,28,0,0,0,10.2,10.9A28.51,28.51,0,0,0,485,238.56Z"/><path class="cls-1" d="M596.44,263a66.14,66.14,0,0,1-30.5-7.1q-13.89-7.1-23.1-23.1l24.2-15.4q5.4,10.8,13.6,15.7A33.36,33.36,0,0,0,598,238q9.81,0,15.4-4.4A14,14,0,0,0,619,222q0-7-4.4-11.2a32.5,32.5,0,0,0-11.7-6.8q-7.29-2.6-15.9-4.8-16.2-4.2-25.8-13.9t-9.6-25.5a39.07,39.07,0,0,1,6.2-22,41.05,41.05,0,0,1,17.3-14.6Q586.24,118,601,118q16.4,0,27.4,6.8a59,59,0,0,1,18.8,19.2l-24,14.8q-5-8.19-10.4-12a22.38,22.38,0,0,0-13.2-3.8q-8.4,0-13.9,4.2a13.41,13.41,0,0,0-5.5,11.2q0,7.8,6.5,11.3a85.62,85.62,0,0,0,15.7,6.3q6.21,2,13.9,4.7a69.19,69.19,0,0,1,14.9,7.4,37.36,37.36,0,0,1,11.8,12.5q4.61,7.8,4.6,19.8a40,40,0,0,1-6.2,22.2,41.47,41.47,0,0,1-17.6,15Q612.44,263,596.44,263Z"/><path class="cls-1" d="M660,260.36v-146h27v56.4q8.4-16.8,31.4-16.8a39.7,39.7,0,0,1,20.2,5.2,37.1,37.1,0,0,1,14.2,14.8q5.2,9.6,5.2,22.8v63.6H731v-57q0-13.59-6.2-19.7t-16.2-6.1a21.42,21.42,0,0,0-15.1,6.1q-6.49,6.1-6.5,19.7v57Z"/><path class="cls-1" d="M824.44,263a55.43,55.43,0,0,1-28.6-7.4,53.42,53.42,0,0,1-26.8-47,54.21,54.21,0,0,1,7.1-27.4,53.46,53.46,0,0,1,19.7-19.8,55.43,55.43,0,0,1,28.6-7.4q16.2,0,28.7,7.4a54.61,54.61,0,0,1,0,94.2Q840.65,263,824.44,263Zm0-24.6a27.16,27.16,0,0,0,15-4.1,27.81,27.81,0,0,0,9.9-10.9,31.9,31.9,0,0,0,3.5-14.8,32.37,32.37,0,0,0-3.5-15,27.81,27.81,0,0,0-9.9-10.9,29.49,29.49,0,0,0-30,0,27.81,27.81,0,0,0-9.9,10.9,32.37,32.37,0,0,0-3.5,15,31.9,31.9,0,0,0,3.5,14.8,27.81,27.81,0,0,0,9.9,10.9A27.16,27.16,0,0,0,824.44,238.36Z"/><path class="cls-1" d="M909.64,260.36l-32.4-104h31.6l13.4,59c.53,2.53,1.1,5.17,1.7,7.9s1.1,5.37,1.5,7.9a136.64,136.64,0,0,1,3.4-16l15.2-58.8h31l16.2,58.8a136.64,136.64,0,0,1,3.4,16q.6-3.79,1.5-7.9c.6-2.73,1.17-5.37,1.7-7.9l14.4-59h29.4l-32.4,104H980l-17-59.2a109.75,109.75,0,0,1-3.6-15.6q-.6,3.81-1.4,7.8t-1.8,7.8l-15.6,59.2Z"/><polygon class="cls-2" points="23.14 183.78 210.28 119.96 203.7 297.44 48.72 300.36 23.14 183.78"/><path class="cls-1" d="M200.94,228.44c0,16.2-17.56,29.33-39.22,29.33s-39.22-13.13-39.22-29.33,17.56-29.32,39.22-29.32S200.94,212.25,200.94,228.44Z"/><path class="cls-3" d="M140.28,233.13a6.41,6.41,0,1,1-6.4-6.77A6.58,6.58,0,0,1,140.28,233.13Z"/><path class="cls-1" d="M38.54,233.12c0,16.2,17.56,29.33,39.22,29.33S117,249.32,117,233.12,99.42,203.8,77.76,203.8,38.54,216.93,38.54,233.12Z"/><path class="cls-3" d="M99.2,237.81a6.41,6.41,0,1,0,6.4-6.77A6.59,6.59,0,0,0,99.2,237.81Z"/><polygon class="cls-4" points="185.06 128.41 174.18 160.35 149.42 166.05 158.56 137.46 185.06 128.41"/><polygon class="cls-4" points="53.95 173.23 48.35 189.32 25.5 194.58 23.13 183.76 53.95 173.23"/><polygon class="cls-4" points="122.87 149.67 114.81 174.02 81.43 181.7 88.81 161.31 122.87 149.67"/><polygon class="cls-2" points="14.45 143.68 58.72 156.58 87.89 132.67 38.2 121.41 14.45 143.68"/><polygon class="cls-2" points="181.29 55.92 168.14 0 121.08 44.05 173.07 62.53 181.29 55.92"/><polygon class="cls-2" points="152.64 79.38 94.94 68.43 64.65 96.77 110.82 113.67 152.64 79.38"/><polygon class="cls-4" points="151.93 80.08 174.02 61.91 121.98 43.15 94.56 68.78 151.93 80.08"/><polygon class="cls-4" points="65.18 96.24 37.41 122.2 87.26 133.31 117.53 108.39 65.18 96.24"/><polygon class="cls-4" points="0 157.17 23.72 186.46 27.95 182.11 59.68 156 14.71 143.41 0 157.17"/></g></g></svg>