<svg xmlns="http://www.w3.org/2000/svg" viewBox="0 0 1586.77 487.46"><defs><style>.cls-1{fill:#6d38e0;}.cls-2{fill:#fff;}.cls-3{fill:#002547;}.cls-4{fill:#d2ccff;}.cls-5{font-size:333.29px;font-family:CalSans-Regular, Cal Sans;}.cls-6{letter-spacing:-0.02em;}</style></defs><g id="Layer_2" data-name="Layer 2"><g id="OBJECTS"><polygon class="cls-1" points="37.55 298.25 341.27 194.68 330.59 482.71 79.07 487.46 37.55 298.25"/><path class="cls-2" d="M326.1,370.74c0,26.29-28.5,47.59-63.65,47.59S198.8,397,198.8,370.74s28.5-47.59,63.65-47.59S326.1,344.45,326.1,370.74Z"/><path class="cls-3" d="M227.65,378.34c0,6.05-4.64,11-10.38,11s-10.39-4.91-10.39-11,4.65-11,10.39-11S227.65,372.28,227.65,378.34Z"/><path class="cls-2" d="M62.55,378.33c0,26.29,28.5,47.59,63.65,47.59s63.65-21.3,63.65-47.59-28.5-47.59-63.65-47.59S62.55,352.05,62.55,378.33Z"/><path class="cls-3" d="M161,385.93c0,6.06,4.64,11,10.38,11a10.68,10.68,0,0,0,10.39-11c0-6.06-4.65-11-10.39-11S161,379.87,161,385.93Z"/><polygon class="cls-4" points="300.34 208.4 282.68 260.24 242.5 269.48 257.33 223.09 300.34 208.4"/><polygon class="cls-4" points="87.56 281.13 78.47 307.25 41.39 315.78 37.54 298.23 87.56 281.13"/><polygon class="cls-4" points="199.41 242.9 186.33 282.42 132.15 294.88 144.13 261.79 199.41 242.9"/><polygon class="cls-1" points="23.46 233.17 95.3 254.11 142.64 215.31 62 197.03 23.46 233.17"/><polygon class="cls-1" points="294.22 90.76 272.87 0 196.5 71.49 280.88 101.48 294.22 90.76"/><polygon class="cls-1" points="247.72 128.82 154.07 111.05 104.91 157.06 179.85 184.48 247.72 128.82"/><polygon class="cls-4" points="246.57 129.97 282.42 100.47 197.96 70.02 153.45 111.63 246.57 129.97"/><polygon class="cls-4" points="105.79 156.18 60.7 198.32 141.61 216.34 190.74 175.91 105.79 156.18"/><polygon class="cls-4" points="0 255.08 38.5 302.6 45.35 295.55 96.86 253.16 23.88 232.75 0 255.08"/><text class="cls-5" transform="translate(355.59 413.8)">o<tspan class="cls-6" x="197.97" y="0">p</tspan><tspan x="396.62" y="0">Sh</tspan><tspan class="cls-6" x="770.24" y="0">o</tspan><tspan x="961.55" y="0">w</tspan></text></g></g></svg>