<svg xmlns="http://www.w3.org/2000/svg" viewBox="0 0 1000 1428.37"><defs><style>.cls-1{fill:#6d38e0;}.cls-2{fill:#fff;}.cls-3{fill:#002547;}.cls-4{fill:#d2ccff;}</style></defs><g id="Layer_2" data-name="Layer 2"><g id="OBJECTS"><polygon class="cls-1" points="110.03 873.96 1000 570.48 968.71 1414.46 231.69 1428.37 110.03 873.96"/><path class="cls-2" d="M955.56,1086.36c0,77-83.5,139.46-186.51,139.46s-186.51-62.43-186.51-139.46,83.51-139.45,186.51-139.45S955.56,1009.34,955.56,1086.36Z"/><path class="cls-3" d="M667.09,1108.63c0,17.74-13.62,32.12-30.44,32.12s-30.43-14.38-30.43-32.12,13.62-32.15,30.43-32.15S667.09,1090.88,667.09,1108.63Z"/><path class="cls-2" d="M183.29,1108.61c0,77,83.5,139.46,186.51,139.46s186.51-62.43,186.51-139.46S472.8,969.16,369.8,969.16,183.29,1031.59,183.29,1108.61Z"/><path class="cls-3" d="M471.76,1130.89c0,17.73,13.62,32.11,30.43,32.11s30.44-14.38,30.44-32.11-13.63-32.16-30.44-32.16S471.76,1113.13,471.76,1130.89Z"/><polygon class="cls-4" points="880.07 610.65 828.33 762.56 710.58 789.64 754.06 653.71 880.07 610.65"/><polygon class="cls-4" points="256.56 823.78 229.95 900.31 121.28 925.32 110.01 873.88 256.56 823.78"/><polygon class="cls-4" points="584.33 711.77 545.98 827.57 387.23 864.08 422.33 767.1 584.33 711.77"/><polygon class="cls-1" points="68.73 683.25 279.24 744.62 417.96 630.92 181.67 577.34 68.73 683.25"/><polygon class="cls-1" points="862.15 265.95 799.57 0 575.78 209.47 823.05 297.38 862.15 265.95"/><polygon class="cls-1" points="725.88 377.47 451.46 325.42 307.42 460.21 527.02 540.57 725.88 377.47"/><polygon class="cls-4" points="722.5 380.84 827.57 294.41 580.07 205.18 449.66 327.1 722.5 380.84"/><polygon class="cls-4" points="309.98 457.65 177.88 581.14 414.95 633.93 558.91 515.47 309.98 457.65"/><polygon class="cls-4" points="0 747.44 112.82 886.69 132.9 866.04 283.82 741.83 69.97 682.01 0 747.44"/></g></g></svg>